<svg width="16" height="16" viewBox="0 0 16 16" fill="none" xmlns="http://www.w3.org/2000/svg">
<path fill-rule="evenodd" clip-rule="evenodd" d="M7.44466 2.53821C7.18903 2.53821 6.98179 2.74544 6.98179 3.00108C6.98179 3.25671 7.18903 3.46394 7.44466 3.46394H8.9984L10.9164 7.67296C10.1753 8.15439 9.64947 8.93928 9.51503 9.85154H8.41354L7.37209 7.07434H7.99997C8.2556 7.07434 8.46283 6.8671 8.46283 6.61147C8.46283 6.35583 8.2556 6.1486 7.99997 6.1486H7.45194L7.44469 6.14854H6.71482C6.70767 6.14838 6.70051 6.14838 6.69334 6.14854H5.96351L5.95627 6.1486H5.68563C5.42999 6.1486 5.22276 6.35583 5.22276 6.61147C5.22276 6.8671 5.42999 7.07434 5.68563 7.07434H6.3834L7.42485 9.85154H6.48509C6.26125 8.33266 4.95245 7.16689 3.37138 7.16689C1.63306 7.16689 0.223877 8.57607 0.223877 10.3144C0.223877 12.0527 1.63306 13.4619 3.37138 13.4619C4.95244 13.4619 6.26122 12.2961 6.48508 10.7773H9.51503C9.73889 12.2961 11.0477 13.4619 12.6287 13.4619C14.3671 13.4619 15.7762 12.0527 15.7762 10.3144C15.7762 8.57607 14.3671 7.16689 12.6287 7.16689C12.3269 7.16689 12.035 7.20937 11.7586 7.28869L11.1585 5.97162C11.3113 6.08297 11.4995 6.14866 11.703 6.14866L11.7032 4.29719C11.2189 4.29719 10.8214 4.669 10.7807 5.14271L9.71733 2.80914C9.64213 2.64411 9.47748 2.53821 9.29613 2.53821H7.44466ZM11.3064 8.52879L12.2076 10.5063C12.3136 10.7389 12.5881 10.8416 12.8207 10.7356C13.0533 10.6296 13.156 10.3551 13.05 10.1225L12.1487 8.14462C12.3033 8.11057 12.4639 8.09262 12.6287 8.09262C13.8558 8.09262 14.8505 9.08734 14.8505 10.3144C14.8505 11.5414 13.8558 12.5362 12.6287 12.5362C11.4017 12.5362 10.407 11.5414 10.407 10.3144C10.407 9.58269 10.7607 8.93361 11.3064 8.52879ZM1.14961 10.3144C1.14961 9.08734 2.14433 8.09262 3.37138 8.09262C4.43971 8.09262 5.33192 8.84665 5.54486 9.85154H3.37129C3.11565 9.85154 2.90842 10.0588 2.90842 10.3144C2.90842 10.57 3.11565 10.7773 3.37129 10.7773H5.54485C5.3319 11.7821 4.43969 12.5362 3.37138 12.5362C2.14433 12.5362 1.14961 11.5414 1.14961 10.3144Z" fill="black"/>
</svg>
