<svg width="24" height="24" viewBox="0 0 24 24" fill="none" xmlns="http://www.w3.org/2000/svg">
<path d="M12 8.37396V19.174" stroke="white" stroke-width="1.2" stroke-miterlimit="10" stroke-linecap="round" stroke-linejoin="round"/>
<path fill-rule="evenodd" clip-rule="evenodd" d="M12.6688 5.45H14.4312V15.0729C14.4312 17.656 16.5252 19.75 19.1083 19.75H19.2298C19.5612 19.75 19.8298 19.4814 19.8298 19.15C19.8298 18.8186 19.5612 18.55 19.2298 18.55H19.1083C17.188 18.55 15.6312 16.9932 15.6312 15.0729V4.85C15.6312 4.51863 15.3626 4.25 15.0312 4.25H12.6688H11.3312H8.96881C8.63743 4.25 8.36881 4.51863 8.36881 4.85V15.0729C8.36881 16.9932 6.81204 18.55 4.89168 18.55H4.77018C4.43881 18.55 4.17018 18.8186 4.17018 19.15C4.17018 19.4814 4.43881 19.75 4.77018 19.75H4.89168C7.47479 19.75 9.56881 17.656 9.56881 15.0729V5.45H11.3312H12.6688Z" fill="white"/>
</svg>
