<svg width="14" height="14" viewBox="0 0 14 14" fill="none" xmlns="http://www.w3.org/2000/svg">
<circle cx="7" cy="7" r="6.6" stroke="black" stroke-width="0.8"/>
<path d="M3.6 10C3.6 10.2209 3.77909 10.4 4 10.4C4.22091 10.4 4.4 10.2209 4.4 10L3.6 10ZM9.6 10C9.6 10.2209 9.77909 10.4 10 10.4C10.2209 10.4 10.4 10.2209 10.4 10L9.6 10ZM4.4 10C4.4 8.56406 5.56406 7.4 7 7.4L7 6.6C5.12223 6.6 3.6 8.12223 3.6 10L4.4 10ZM7 7.4C8.43594 7.4 9.6 8.56406 9.6 10L10.4 10C10.4 8.12223 8.87777 6.6 7 6.6L7 7.4Z" fill="black"/>
<circle cx="5" cy="4.7" r="0.7" fill="black"/>
<circle cx="9" cy="4.7" r="0.7" fill="black"/>
</svg>
