<svg width="15" height="14" viewBox="0 0 15 14" fill="none" xmlns="http://www.w3.org/2000/svg">
<circle cx="7.25" cy="7" r="6.6" stroke="black" stroke-width="0.8"/>
<path d="M3.85 10C3.85 10.2209 4.02909 10.4 4.25 10.4C4.47091 10.4 4.65 10.2209 4.65 10L3.85 10ZM9.85 10C9.85 10.2209 10.0291 10.4 10.25 10.4C10.4709 10.4 10.65 10.2209 10.65 10L9.85 10ZM4.65 10C4.65 8.56406 5.81406 7.4 7.25 7.4L7.25 6.6C5.37223 6.6 3.85 8.12223 3.85 10L4.65 10ZM7.25 7.4C8.68594 7.4 9.85 8.56406 9.85 10L10.65 10C10.65 8.12223 9.12777 6.6 7.25 6.6L7.25 7.4Z" fill="black"/>
<path fill-rule="evenodd" clip-rule="evenodd" d="M4.26563 3.11521C4.4609 2.91995 4.77748 2.91995 4.97274 3.11521L6.51563 4.6581C6.7109 4.85337 6.7109 5.16995 6.51563 5.36521C6.32037 5.56047 6.00379 5.56047 5.80853 5.36521L4.26563 3.82232C4.07037 3.62706 4.07037 3.31047 4.26563 3.11521Z" fill="black"/>
<path fill-rule="evenodd" clip-rule="evenodd" d="M6.51563 3.16604C6.7109 3.3613 6.7109 3.67788 6.51563 3.87315L4.97274 5.41604C4.77748 5.6113 4.4609 5.6113 4.26563 5.41604C4.07037 5.22078 4.07037 4.90419 4.26563 4.70893L5.80853 3.16604C6.00379 2.97078 6.32037 2.97078 6.51563 3.16604Z" fill="black"/>
<path fill-rule="evenodd" clip-rule="evenodd" d="M7.98438 3.11521C8.17965 2.91995 8.49623 2.91995 8.69149 3.11521L10.2344 4.6581C10.4296 4.85337 10.4296 5.16995 10.2344 5.36521C10.0391 5.56047 9.72254 5.56047 9.52728 5.36521L7.98438 3.82232C7.78912 3.62706 7.78912 3.31047 7.98438 3.11521Z" fill="black"/>
<path fill-rule="evenodd" clip-rule="evenodd" d="M10.2344 3.16604C10.4296 3.3613 10.4296 3.67788 10.2344 3.87315L8.69149 5.41604C8.49623 5.6113 8.17965 5.6113 7.98438 5.41604C7.78912 5.22078 7.78912 4.90419 7.98438 4.70893L9.52728 3.16604C9.72254 2.97078 10.0391 2.97078 10.2344 3.16604Z" fill="black"/>
</svg>
