<svg width="14" height="14" viewBox="0 0 14 14" fill="none" xmlns="http://www.w3.org/2000/svg">
<circle cx="7" cy="7" r="6.6" stroke="black" stroke-width="0.8"/>
<path d="M10.4 7C10.4 6.77909 10.2209 6.6 10 6.6C9.77909 6.6 9.6 6.77909 9.6 7H10.4ZM4.4 7C4.4 6.77909 4.22091 6.6 4 6.6C3.77909 6.6 3.6 6.77909 3.6 7H4.4ZM9.6 7C9.6 8.43594 8.43594 9.6 7 9.6V10.4C8.87777 10.4 10.4 8.87777 10.4 7H9.6ZM7 9.6C5.56406 9.6 4.4 8.43594 4.4 7H3.6C3.6 8.87777 5.12223 10.4 7 10.4V9.6Z" fill="black"/>
<circle cx="5" cy="4.7" r="0.7" fill="black"/>
<circle cx="9" cy="4.7" r="0.7" fill="black"/>
</svg>
