<svg width="14" height="14" viewBox="0 0 14 14" fill="none" xmlns="http://www.w3.org/2000/svg">
<circle cx="7" cy="7" r="6.6" stroke="black" stroke-width="0.8"/>
<mask id="path-2-inside-1" fill="white">
<path d="M7 11C8.86748 11 10.4361 9.72024 10.8766 7.98988C11.0128 7.45467 10.5523 7 10 7H4C3.44772 7 2.98717 7.45467 3.12343 7.98988C3.56394 9.72024 5.13252 11 7 11Z"/>
</mask>
<path d="M10.8766 7.98988L10.1013 7.79251L10.1013 7.79251L10.8766 7.98988ZM3.12343 7.98988L2.34816 8.18725L3.12343 7.98988ZM10.1013 7.79251C9.74885 9.17695 8.4929 10.2 7 10.2V11.8C9.24207 11.8 11.1233 10.2635 11.6518 8.18725L10.1013 7.79251ZM7 10.2C5.5071 10.2 4.25115 9.17694 3.8987 7.79251L2.34816 8.18725C2.87674 10.2635 4.75793 11.8 7 11.8V10.2ZM4 7.8H10V6.2H4V7.8ZM3.8987 7.79251C3.89842 7.79141 3.89935 7.79475 3.89928 7.80162C3.89921 7.80843 3.89819 7.81584 3.89623 7.82291C3.8922 7.83746 3.88695 7.84162 3.89061 7.83767C3.89472 7.83323 3.90605 7.8233 3.9266 7.81447C3.94662 7.80587 3.97163 7.8 4 7.8V6.2C3.08019 6.2 2.04753 7.00639 2.34816 8.18725L3.8987 7.79251ZM11.6518 8.18725C11.9525 7.00639 10.9198 6.2 10 6.2V7.8C10.0284 7.8 10.0534 7.80587 10.0734 7.81447C10.094 7.8233 10.1053 7.83323 10.1094 7.83767C10.1131 7.84162 10.1078 7.83746 10.1038 7.82291C10.1018 7.81584 10.1008 7.80843 10.1007 7.80162C10.1007 7.79475 10.1016 7.79141 10.1013 7.79251L11.6518 8.18725Z" fill="black" mask="url(#path-2-inside-1)"/>
<path d="M2.6 5.40002C2.6 5.62094 2.77909 5.80002 3 5.80002C3.22091 5.80002 3.4 5.62094 3.4 5.40002L2.6 5.40002ZM5.6 5.40002C5.6 5.62094 5.77909 5.80002 6 5.80002C6.22091 5.80002 6.4 5.62094 6.4 5.40002L5.6 5.40002ZM3.4 5.40002C3.4 4.79251 3.89249 4.30002 4.5 4.30002L4.5 3.50002C3.45066 3.50002 2.6 4.35068 2.6 5.40002L3.4 5.40002ZM4.5 4.30002C5.10751 4.30002 5.6 4.79251 5.6 5.40002L6.4 5.40002C6.4 4.35068 5.54934 3.50002 4.5 3.50002L4.5 4.30002Z" fill="black"/>
<path d="M7.6 5.40002C7.6 5.62094 7.77909 5.80002 8 5.80002C8.22091 5.80002 8.4 5.62094 8.4 5.40002L7.6 5.40002ZM10.6 5.40002C10.6 5.62094 10.7791 5.80002 11 5.80002C11.2209 5.80002 11.4 5.62094 11.4 5.40002L10.6 5.40002ZM8.4 5.40002C8.4 4.79251 8.89249 4.30002 9.5 4.30002L9.5 3.50002C8.45066 3.50002 7.6 4.35068 7.6 5.40002L8.4 5.40002ZM9.5 4.30002C10.1075 4.30002 10.6 4.79251 10.6 5.40002L11.4 5.40002C11.4 4.35068 10.5493 3.50002 9.5 3.50002L9.5 4.30002Z" fill="black"/>
</svg>
