<?xml version="1.0" encoding="utf-8"?>
<!-- Generator: Adobe Illustrator 26.0.3, SVG Export Plug-In . SVG Version: 6.00 Build 0)  -->
<svg version="1.1" id="Layer_1" xmlns="http://www.w3.org/2000/svg" xmlns:xlink="http://www.w3.org/1999/xlink" x="0px" y="0px"
	 viewBox="0 0 24 24" style="enable-background:new 0 0 24 24;" xml:space="preserve">
<style type="text/css">
	.st0{fill:none;stroke:#2477BE;stroke-linecap:round;stroke-linejoin:round;stroke-miterlimit:10;}
	.st1{fill:#2477BE;}
</style>
<polyline class="st0" points="14.2,-9.8 12.6,-8.2 14.2,-8.2 12.4,-6.3 "/>
<g>
	<path class="st1" d="M12.7,11.1c0.9-0.7,1.2-1.1,1.2-1.9c0-0.9-0.8-1.6-1.9-1.6c-1.1,0-1.7,0.6-2,1.5C9.8,9.3,9.7,9.5,9.4,9.5
		C9.2,9.5,9,9.3,9,9c0-0.6,0.3-1.2,0.9-1.7c0.5-0.4,1.2-0.6,2.1-0.6c1.7,0,2.9,1,2.9,2.5c0,1-0.4,1.6-1.5,2.5
		c-1,0.8-1.1,1.1-1.2,1.9c0,0.4-0.2,0.6-0.5,0.6c-0.3,0-0.5-0.2-0.5-0.6C11.2,12.5,11.5,12,12.7,11.1z M11.8,15.8
		c0.4,0,0.8,0.3,0.8,0.8s-0.3,0.8-0.8,0.8c-0.4,0-0.8-0.3-0.8-0.8S11.3,15.8,11.8,15.8z"/>
</g>
</svg>
