<?xml version="1.0" encoding="utf-8"?>
<!-- Generator: Adobe Illustrator 25.1.0, SVG Export Plug-In . SVG Version: 6.00 Build 0)  -->
<svg version="1.1" id="Layer_1" xmlns="http://www.w3.org/2000/svg" xmlns:xlink="http://www.w3.org/1999/xlink" x="0px" y="0px"
	 viewBox="0 0 24 24" style="enable-background:new 0 0 24 24;" xml:space="preserve">
<style type="text/css">
	.st0{fill:#2477BE;}
</style>
<g>
	<path class="st0" d="M11.1,13.6v-0.2c0-1,0.5-1.7,1.5-2.3c0.9-0.5,1.2-1,1.2-1.8c0-1-0.7-1.6-1.8-1.6c-1,0-1.7,0.5-1.9,1.4
		C9.9,9.5,9.8,9.7,9.4,9.7C9,9.7,8.8,9.5,8.8,9.1c0-0.3,0.1-0.6,0.2-0.9c0.4-1.1,1.5-1.7,3-1.7c1.9,0,3.2,1.1,3.2,2.7
		c0,1.2-0.6,2-1.6,2.6c-1,0.6-1.2,1-1.2,1.8c0,0.5-0.2,0.8-0.6,0.8S11.1,14,11.1,13.6z M10.9,16.6c0-0.5,0.4-0.9,0.9-0.9
		c0.5,0,0.9,0.4,0.9,0.9c0,0.5-0.4,0.9-0.9,0.9C11.3,17.5,10.9,17.1,10.9,16.6z"/>
</g>
</svg>
