<?xml version="1.0" encoding="utf-8"?>
<!-- Generator: Adobe Illustrator 25.3.1, SVG Export Plug-In . SVG Version: 6.00 Build 0)  -->
<svg version="1.1" id="Layer_1" xmlns="http://www.w3.org/2000/svg" xmlns:xlink="http://www.w3.org/1999/xlink" x="0px" y="0px"
	 viewBox="0 0 38 38" style="enable-background:new 0 0 38 38;" xml:space="preserve">
<path d="M24.1,24c5-5.4,4.9-13.8-0.3-19.1c-5.4-5.4-14.1-5.4-19.4,0C-1,10.3-1,19,4.4,24.4c5.3,5.3,13.7,5.4,19.1,0.3
	c-0.2,0.3-0.2,0.6-0.2,0.9l0,0.3c0.1,0.5,0.3,1,0.6,1.3l10.6,10.6l2.7-2.7L26.7,24.5c-0.4-0.4-0.8-0.6-1.3-0.6l-0.3,0
	C24.7,23.8,24.4,23.9,24.1,24z M21.2,7.5c3.9,3.9,3.9,10.3,0,14.2c-3.9,3.9-10.3,3.9-14.2,0C3.1,17.8,3.1,11.5,7,7.5
	C10.9,3.6,17.3,3.6,21.2,7.5z"/>
</svg>
